Coordinates
version=1
nRows=17
nColumns=36
inDegrees=yes

Units are S.I. units (second, meters, Newtons, ...)
If the header above contains a line with 'inDegrees', this indicates whether rotational values are in degrees (yes) or radians (no).

endheader
time	pelvis_tilt	pelvis_list	pelvis_rotation	pelvis_tx	pelvis_ty	pelvis_tz	hip_flexion_r	hip_adduction_r	hip_rotation_r	knee_angle_r	knee_angle_r_beta	ankle_angle_r	subtalar_angle_r	mtp_angle_r	hip_flexion_l	hip_adduction_l	hip_rotation_l	knee_angle_l	knee_angle_l_beta	ankle_angle_l	subtalar_angle_l	mtp_angle_l	lumbar_extension	lumbar_bending	lumbar_rotation	arm_flex_r	arm_add_r	arm_rot_r	elbow_flex_r	pro_sup_r	arm_flex_l	arm_add_l	arm_rot_l	elbow_flex_l	pro_sup_l
      0.36000000	      1.36700873	     -1.90925028	      1.63596095	      0.29416699	      1.05630238	     -0.13838105	     -3.35397557	      6.85975502	     -2.59269490	      6.81419999	      0.11893023	     12.88547157	      6.38912062	     -6.04762897	     24.84330615	     -2.00329461	     -4.98382416	     53.63440447	      0.93609695	      9.82723015	     -8.51527849	     -6.04762897	     -9.68232885	     -0.74292740	     -5.41114264	    -11.09133857	     -4.66905642	    -21.78808131	     42.24090531	    102.50337892	    -16.57719171	     -6.92533715	    -11.29433148	     58.41412147	     95.59902449
      0.37000000	      1.24867712	     -1.79397655	      1.57432751	      0.30491078	      1.05527810	     -0.13736482	     -3.91311972	      6.85107611	     -2.35102823	      6.78856133	      0.11848275	     13.24221003	      6.08862690	     -6.06593626	     25.33348267	     -1.83414327	     -4.87851378	     50.86239735	      0.88771630	      9.81697528	     -8.33150458	     -6.06593626	     -9.69515484	     -1.28352285	     -5.64277070	    -11.03855069	     -4.79960353	    -21.60121363	     42.55479779	    102.46808315	    -17.58907924	     -6.52617223	    -12.15320658	     57.11088255	     95.38086550
      0.38000000	      1.21883733	     -1.80733499	      1.49109746	      0.31569763	      1.05421686	     -0.13613009	     -4.59301810	      7.01011056	     -1.99303265	      6.71260331	      0.11715703	     13.57926057	      5.73478425	     -6.08960123	     25.64573460	     -1.83097090	     -4.71757271	     47.91919375	      0.83634771	      9.49483819	     -8.37257333	     -6.08960123	     -9.79579574	     -1.73467228	     -5.76205154	    -11.00118462	     -4.89910310	    -21.35867505	     42.82894955	    102.41790924	    -18.48185601	     -6.05307099	    -13.38549590	     55.86554029	     95.12656289
      0.39000000	      1.11338905	     -1.80208050	      1.46263813	      0.32650023	      1.05287282	     -0.13505411	     -5.22742030	      7.15726375	     -1.53558708	      6.56147774	      0.11451939	     13.75210082	      5.11211394	     -6.15425542	     25.97868165	     -1.74748467	     -4.43856920	     44.82592711	      0.78236002	      8.72685990	     -8.78685249	     -6.15425542	     -9.86015914	     -2.23728479	     -6.17551520	    -10.82403973	     -5.08716268	    -20.82261260	     42.96483986	    102.25107686	    -19.60431631	     -5.48669811	    -14.95037582	     54.96078127	     94.81433006
      0.40000000	      0.92821039	     -1.82896235	      1.46687446	      0.33749598	      1.05123264	     -0.13400425	     -5.74116115	      7.31668773	     -1.35482781	      6.50842691	      0.11359348	     14.08576603	      4.91063890	     -6.16433214	     26.35818904	     -1.72358881	     -4.14508128	     41.72828110	      0.72829590	      8.31491209	     -8.39283269	     -6.16433214	     -9.79295508	     -2.66858837	     -6.32843901	    -10.95774387	     -5.14677236	    -20.77086179	     43.37984069	    102.25091816	    -20.59527550	     -5.29630982	    -15.49281740	     53.81481384	     94.62780324
      0.41000000	      0.98947519	     -1.81915229	      1.43619125	      0.34857309	      1.04986128	     -0.13299036	     -6.60145555	      7.45155903	     -0.95122183	      6.32258286	      0.11034989	     14.44736931	      4.40870090	     -6.21176652	     26.32483111	     -1.65146216	     -3.88935846	     38.33347652	      0.66904538	      6.74013693	     -9.15600327	     -6.21176652	    -10.02735415	     -3.18770688	     -6.54764679	    -10.99040025	     -5.29455307	    -20.48417076	     43.74055721	    102.16956961	    -21.41817670	     -4.78011097	    -16.93071312	     52.59786235	     94.21505267
      0.42000000	      0.79138452	     -1.88446928	      1.49434713	      0.35977041	      1.04791093	     -0.13200291	     -7.12407322	      7.65554371	     -0.77837650	      6.26880687	      0.10941132	     14.83221672	      4.19295205	     -6.22240219	     26.60431329	     -1.69447528	     -3.62363066	     35.05601705	      0.61184292	      5.81401818	     -8.55149769	     -6.22240219	     -9.95842680	     -3.62036953	     -6.77965219	    -11.17554527	     -5.34306071	    -20.40510935	     44.19372174	    102.18123562	    -22.39878979	     -4.63121672	    -17.44216879	     51.52872165	     94.01483734
      0.43000000	      0.85619670	     -1.89798801	      1.49216262	      0.37106931	      1.04624663	     -0.13114987	     -8.00767458	      7.79528445	     -0.43747137	      6.09364859	      0.10635423	     15.26044841	      3.84651191	     -6.26090789	     26.44660476	     -1.65204860	     -3.37362952	     31.49646710	      0.54971705	      3.63702971	     -9.20534654	     -6.26090789	    -10.19769720	     -4.10495904	     -6.95272879	    -11.32881649	     -5.51886987	    -20.11443377	     44.65142662	    102.15942867	    -23.16198926	     -4.22802459	    -18.58407899	     50.33265318	     93.57994660
      0.44000000	      0.76618473	     -1.95690642	      1.52701995	      0.38243861	      1.04420285	     -0.13024424	     -8.66089208	      7.97936668	     -0.23126999	      6.05453141	      0.10567151	     15.75221146	      3.58287316	     -6.28391884	     26.47924994	     -1.72618837	     -3.24514502	     28.02847539	      0.48918918	      1.77294820	     -8.70714159	     -6.28391884	    -10.26496720	     -4.56002494	     -7.15804315	    -11.55098567	     -5.62429770	    -19.90936802	     45.16679455	    102.17239584	    -24.00563033	     -4.05409169	    -19.22809335	     49.21992325	     93.27303827
      0.45000000	      0.51721352	     -2.08035859	      1.59226979	      0.39395044	      1.04173153	     -0.12946514	     -9.13427237	      8.22102217	     -0.04116129	      6.04671038	      0.10553501	     16.18138597	      3.38943736	     -6.29580545	     26.68268107	     -1.85533337	     -3.04044727	     24.61444661	      0.42960314	     -0.00192744	     -7.73309475	     -6.29580545	    -10.11211646	     -4.94939583	     -7.37666777	    -11.85918388	     -5.76580467	    -19.78656978	     45.71639950	    102.20310529	    -24.94324539	     -3.90713542	    -19.66028244	     48.26888578	     93.06426811
      0.46000000	      0.37371029	     -2.13998117	      1.60318074	      0.40551014	      1.03935719	     -0.12863527	     -9.71164835	      8.38755273	      0.20819571	      6.07653651	      0.10605557	     16.71896864	      3.14944699	     -6.30907120	     26.69009407	     -1.95752596	     -2.97227009	     21.10114557	      0.36828447	     -2.23621805	     -6.77332392	     -6.30907120	    -10.11224685	     -5.42732915	     -7.51494468	    -12.21431427	     -5.87988590	    -19.55482701	     46.31855758	    102.24738669	    -25.71553963	     -3.77220989	    -20.17523097	     47.19358778	     92.82279260
      0.47000000	      0.30350466	     -2.19019452	      1.55203377	      0.41713667	      1.03697357	     -0.12785531	    -10.35603891	      8.52263158	      0.55415693	      6.15164622	      0.10736648	     17.27214026	      2.92374579	     -6.33375219	     26.54122356	     -2.04570486	     -2.85147289	     17.53808653	      0.30609735	     -4.76287246	     -6.14802894	     -6.33375219	    -10.18280858	     -5.92230306	     -7.57743070	    -12.59814051	     -6.06952039	    -19.20699727	     46.95609379	    102.28892568	    -26.39231141	     -3.63122657	    -20.73206855	     46.10058172	     92.50742822
      0.48000000	     -0.10692369	     -2.33119507	      1.56985866	      0.42877574	      1.03394330	     -0.12714919	    -10.55302651	      8.75237396	      0.80030706	      6.36775732	      0.11113833	     17.72428921	      2.74558121	     -6.34216840	     26.84120753	     -2.20039895	     -2.40270316	     14.27658948	      0.24917349	     -6.35722868	     -4.48941794	     -6.34216840	     -9.84448944	     -6.33979367	     -7.78960462	    -12.96362842	     -6.19264641	    -19.07598410	     47.52435308	    102.32923580	    -27.32417489	     -3.55556798	    -20.97184971	     45.37832418	     92.36900598
      0.49000000	     -0.18259561	     -2.28931084	      1.46529889	      0.44060451	      1.03138804	     -0.12636719	    -11.12752214	      8.77378472	      1.10303261	      6.61986101	      0.11553837	     18.43009312	      2.50274210	     -6.36332419	     26.64788995	     -2.25793308	     -2.34211484	     10.95072415	      0.19112619	     -8.23563759	     -2.94929916	     -6.36332419	     -9.89794427	     -6.95828888	     -7.78464356	    -13.43015777	     -6.36914611	    -18.67509947	     48.17817813	    102.38331395	    -27.95406907	     -3.49895937	    -21.35755979	     44.40912334	     92.13560431
      0.50000000	     -0.58342530	     -2.37739054	      1.38727254	      0.45233066	      1.02827650	     -0.12565468	    -11.25282820	      8.91426369	      1.35463795	      7.00625564	      0.12228223	     18.91262945	      2.32695117	     -6.37126963	     26.88288348	     -2.39544767	     -1.59147965	      8.04798563	      0.14046385	     -8.94064891	     -1.24349713	     -6.37126963	     -9.58335605	     -7.46389653	     -7.92932229	    -13.77672443	     -6.49509745	    -18.53452554	     48.71979227	    102.42375823	    -28.82958135	     -3.44886050	    -21.53376128	     43.83747219	     92.03612804
      0.51000000	     -0.74024782	     -2.35939832	      1.28472393	      0.46421519	      1.02551315	     -0.12496112	    -11.62775073	      8.93450724	      1.57683798	      7.46654879	      0.13031586	     19.60311724	      2.11744588	     -6.38400682	     26.81631874	     -2.47962947	     -0.96106400	      5.38773919	      0.09403379	     -9.27007274	      0.59408074	     -6.38400682	     -9.55148062	     -8.08171421	     -7.93843716	    -14.22651613	     -6.64576635	    -18.22875795	     49.32480488	    102.47835237	    -29.51220037	     -3.43367362	    -21.77866615	     43.21492308	     91.91795518
      0.52000000	     -0.88009377	     -2.35586936	      1.13253942	      0.47616469	      1.02275878	     -0.12427860	    -11.97742161	      8.94363949	      1.77067677	      8.01039506	      0.13980777	     20.23741615	      2.03221721	     -6.40063749	     26.80177020	     -2.60699465	     -0.20727838	      3.26736646	      0.05702630	     -8.51025738	      2.47276432	     -6.40063749	     -9.54053893	     -8.67117928	     -7.95847587	    -14.66552497	     -6.80731988	    -17.93611655	     49.96343948	    102.52889794	    -30.21114163	     -3.38040763	    -22.00173600	     42.73382690	     91.81751414
